{"title":"Tanu Weds Manu 2011 DVDRip XviD AC3 E-Subs - VeDesi.avi","uid":6288435,"size":1393702912,"categoryP":"video","categoryS":"movies","magnet":"?xt=urn:btih:56a6b4c4df4e6f4de392f826a38ad0b76bdb9a70&amp;dn=Tanu+Weds+Manu+2011+DVDRip+XviD+AC3+E-Subs+-+VeDesi.avi&amp;tr=udp%3A%2F%2Ftracker.openbittorrent.com%3A80&amp;tr=udp%3A%2F%2Fopen.demonii.com%3A1337&amp;tr=udp%3A%2F%2Ftracker.coppersurfer.tk%3A6969&amp;tr=udp%3A%2F%2Fexodus.desync.com%3A6969","seeders":0,"leechers":1,"uploader":"Azurious","files":1,"time":1301703951,"description":"General\nComplete name                    : Tanu Weds Manu 2011 DVDRip XviD AC3 E-Subs - VeDesi.avi\nFormat                           : AVI\nFormat/Info                      : Audio Video Interleave\nFile size                        : 1.30 GiB\nDuration                         : 1h 59mn\nOverall bit rate                 : 1 557 Kbps\nWriting application              : VirtualDubMod 1.5.10.2 (build 2540/release)\nWriting library                  : VirtualDubMod build 2540/release\n\nVideo\nID                               : 0\nFormat                           : MPEG-4 Visual\nFormat profile                   : Advanced Simple@L5\nFormat settings, BVOP            : 2\nFormat settings, QPel            : No\nFormat settings, GMC             : No warppoints\nFormat settings, Matrix          : Default (H.263)\nCodec ID                         : XVID\nCodec ID/Hint                    : XviD\nDuration                         : 1h 59mn\nBit rate                         : 1 164 Kbps\nWidth                            : 640 pixels\nHeight                           : 272 pixels\nDisplay aspect ratio             : 2.35:1\nFrame rate                       : 23.976 fps\nColor space                      : YUV\nChroma subsampling               : 4:2:0\nBit depth                        : 8 bits\nScan type                        : Progressive\nCompression mode                 : Lossy\nBits/(Pixel*Frame)               : 0.279\nStream size                      : 993 MiB (75%)\nWriting library                  : XviD 1.2.1 (UTC 2008-12-04)\n\nAudio\nID                               : 1\nFormat                           : AC-3\nFormat/Info                      : Audio Coding 3\nMode extension                   : CM (complete main)\nCodec ID                         : 2000\nDuration                         : 1h 59mn\nBit rate mode                    : Constant\nBit rate                         : 384 Kbps\nChannel(s)                       : 6 channels\nChannel positions                : Front: L C R, Side: L R, LFE\nSampling rate                    : 48.0 KHz\nBit depth                        : 16 bits\nCompression mode                 : Lossy\nStream size                      : 328 MiB (25%)\nAlignment                        : Split accross interleaves\nInterleave, duration             : 42 ms (1.00 video frame)\nInterleave, preload duration     : 500 ms\n\nScreen Shots: &lt;a href=&quot;\nhttp://www.picasaindia.com/images/30257172749456906500.png&quot; rel=&quot;nofollow&quot; target=&quot;_NEW&quot;&gt;\nhttp://www.picasaindia.com/images/30257172749456906500.png&lt;/a&gt; &lt;a href=&quot;\nhttp://www.picasaindia.com/images/88817874823830419784.png&quot; rel=&quot;nofollow&quot; target=&quot;_NEW&quot;&gt;\nhttp://www.picasaindia.com/images/88817874823830419784.png&lt;/a&gt; &lt;a href=&quot;\nhttp://www.picasaindia.com/images/16379067489913512148.png&quot; rel=&quot;nofollow&quot; target=&quot;_NEW&quot;&gt;\nhttp://www.picasaindia.com/images/16379067489913512148.png&lt;/a&gt; &lt;a href=&quot;\nhttp://www.picasaindia.com/images/45042153836448049789.png&quot; rel=&quot;nofollow&quot; target=&quot;_NEW&quot;&gt;\nhttp://www.picasaindia.com/images/45042153836448049789.png&lt;/a&gt; &lt;a href=&quot;\nhttp://www.picasaindia.com/images/07297511894492751867.png&quot; rel=&quot;nofollow&quot; target=&quot;_NEW&quot;&gt;\nhttp://www.picasaindia.com/images/07297511894492751867.png&lt;/a&gt; &lt;a href=&quot;\nhttp://www.picasaindia.com/images/98511437057856390557.png&quot; rel=&quot;nofollow&quot; target=&quot;_NEW&quot;&gt;\nhttp://www.picasaindia.com/images/98511437057856390557.png&lt;/a&gt; &lt;a href=&quot;\nhttp://www.picasaindia.com/images/76367118893625202243.png&quot; rel=&quot;nofollow&quot; target=&quot;_NEW&quot;&gt;\nhttp://www.picasaindia.com/images/76367118893625202243.png&lt;/a&gt; &lt;a href=&quot;\nhttp://www.picasaindia.com/images/91748034391710425291.png&quot; rel=&quot;nofollow&quot; target=&quot;_NEW&quot;&gt;\nhttp://www.picasaindia.com/images/91748034391710425291.png&lt;/a&gt;","torrent":{"xt":"urn:btih:56a6b4c4df4e6f4de392f826a38ad0b76bdb9a70","amp;dn":"Tanu+Weds+Manu+2011+DVDRip+XviD+AC3+E-Subs+-+VeDesi.avi","amp;tr":["udp%3A%2F%2Ftracker.openbittorrent.com%3A80","udp%3A%2F%2Fopen.demonii.com%3A1337","udp%3A%2F%2Ftracker.coppersurfer.tk%3A6969","udp%3A%2F%2Fexodus.desync.com%3A6969"],"infoHash":"56a6b4c4df4e6f4de392f826a38ad0b76bdb9a70","infoHashBuffer":{"type":"Buffer","data":[86,166,180,196,223,78,111,77,227,146,248,38,163,138,208,183,107,219,154,112]},"announce":[],"urlList":[]}}